<?xml version="1.0" standalone="no"?>
<!DOCTYPE svg PUBLIC "-//W3C//DTD SVG 20010904//EN"
 "http://www.w3.org/TR/2001/REC-SVG-20010904/DTD/svg10.dtd">
<svg version="1.0" xmlns="http://www.w3.org/2000/svg"
 width="310.000000pt" height="310.000000pt" viewBox="0 0 310.000000 310.000000"
 preserveAspectRatio="xMidYMid meet">
<metadata>
Created by potrace 1.15, written by Peter Selinger 2001-2017
</metadata>
<g transform="translate(0.000000,310.000000) scale(0.100000,-0.100000)"
fill="#000000" stroke="none">
<path d="M1268 3083 c-27 -2 -48 -8 -48 -14 0 -5 -13 -9 -29 -9 -30 0 -115
-23 -168 -46 -17 -8 -40 -14 -52 -14 -12 0 -21 -4 -21 -10 0 -5 -5 -10 -10
-10 -16 0 -183 -82 -198 -97 -7 -7 -20 -13 -28 -13 -8 0 -14 -3 -14 -8 0 -4
-15 -15 -32 -25 -18 -10 -47 -30 -65 -45 -17 -15 -46 -38 -63 -52 -78 -60
-230 -223 -276 -295 -10 -17 -21 -32 -24 -35 -10 -10 -31 -45 -36 -62 -4 -10
-10 -18 -14 -18 -4 0 -11 -11 -14 -25 -4 -14 -11 -25 -16 -25 -6 0 -10 -4 -10
-10 0 -17 -34 -90 -42 -90 -5 0 -8 -7 -8 -16 0 -9 -6 -30 -14 -47 -29 -67 -46
-118 -46 -142 0 -14 -4 -25 -9 -25 -40 0 -42 -721 -3 -815 17 -39 42 -123 42
-139 0 -9 5 -16 10 -16 6 0 10 -8 10 -18 0 -25 99 -219 128 -250 6 -7 12 -19
12 -27 0 -7 3 -15 7 -17 5 -1 28 -30 53 -63 69 -91 73 -95 98 -95 19 0 22 -4
17 -21 -6 -17 7 -34 67 -89 40 -38 80 -76 89 -85 9 -8 23 -15 33 -15 9 0 15
-4 12 -9 -3 -5 10 -22 30 -37 19 -16 41 -35 49 -41 7 -7 18 -13 24 -13 6 0 11
-4 11 -10 0 -5 5 -10 11 -10 6 0 40 -14 76 -30 35 -17 71 -30 79 -30 8 0 14
-4 14 -10 0 -5 7 -10 16 -10 9 0 30 -6 47 -14 18 -7 48 -21 69 -30 20 -9 45
-16 57 -16 12 0 21 -3 21 -8 0 -43 832 -44 848 -1 2 5 11 9 20 9 20 0 115 32
122 41 3 3 18 9 35 13 16 4 32 11 35 14 10 13 68 42 84 42 9 0 16 5 16 10 0 6
8 10 19 10 10 0 24 6 30 14 10 11 4 17 -31 29 -24 9 -55 18 -69 21 -15 3 -31
17 -38 32 -8 19 -16 24 -29 19 -35 -13 -162 -45 -181 -45 -11 0 -32 6 -48 14
-36 18 -95 36 -116 36 -35 0 -10 191 25 198 14 3 71 -18 156 -55 6 -3 12 -1
12 5 0 6 -32 23 -71 38 -38 15 -72 30 -74 33 -3 6 17 91 30 122 4 10 47 30
110 50 58 19 115 42 127 52 l23 18 -30 -7 c-31 -7 -147 -45 -177 -59 -10 -4
-18 -3 -18 3 0 21 52 102 66 102 8 0 14 8 14 18 0 9 11 30 23 46 22 27 26 28
57 18 43 -15 54 -5 12 10 -39 15 -41 36 -6 77 33 40 59 40 79 0 9 -17 20 -28
23 -24 12 11 11 138 -1 166 -10 24 -14 26 -36 16 -56 -22 -87 -38 -114 -59
-21 -17 -30 -19 -39 -10 -16 16 -28 15 -28 -3 0 -8 -9 -19 -21 -26 -17 -9 -24
-7 -40 10 -13 14 -32 21 -57 21 -62 0 -276 -31 -288 -41 -7 -5 -23 -7 -36 -4
-20 5 -33 -3 -74 -45 -35 -36 -55 -49 -69 -46 -11 3 -58 1 -105 -3 -80 -7 -87
-6 -113 16 -16 12 -37 23 -47 23 -10 0 -22 4 -25 10 -8 13 -61 13 -86 -1 -14
-7 -30 -7 -48 -1 -20 7 -37 6 -61 -4 -32 -14 -35 -13 -60 11 -14 14 -30 25
-34 25 -4 0 -6 -54 -5 -121 4 -138 6 -135 -82 -145 -110 -12 -357 58 -411 117
-48 52 -50 63 -28 121 17 45 20 77 20 208 0 178 11 232 79 373 70 144 210 266
381 331 41 16 84 35 95 43 11 7 30 13 42 13 12 0 47 12 77 27 l54 26 6 66 c4
36 8 84 10 107 3 53 13 69 32 53 8 -6 14 -17 14 -25 0 -7 16 -40 36 -73 30
-51 42 -62 71 -67 27 -5 41 -2 63 15 50 37 57 30 41 -42 -6 -23 -12 -54 -15
-69 -4 -17 -16 -29 -36 -37 -37 -12 -56 -54 -41 -88 12 -27 0 -30 -23 -7 -20
20 -19 119 1 152 19 31 11 37 -26 18 -16 -9 -39 -16 -50 -16 -37 0 -43 -68
-14 -168 8 -29 21 -65 29 -80 8 -15 14 -40 14 -57 1 -41 24 -134 44 -176 26
-53 131 -189 163 -210 35 -24 54 -24 101 0 59 30 125 94 179 173 63 94 82 134
94 209 6 40 22 80 47 120 36 59 38 60 74 54 50 -9 70 -1 91 35 20 32 41 38 72
17 11 -7 40 -19 65 -27 43 -13 268 -155 320 -202 38 -34 63 -80 114 -210 49
-122 78 -220 74 -247 -2 -18 9 -72 22 -111 4 -14 11 -46 14 -72 l5 -47 -59
-36 c-33 -20 -64 -44 -70 -53 -6 -12 -12 -13 -17 -6 -8 11 -83 7 -83 -5 0 -4
-36 -4 -81 0 -55 5 -86 13 -100 25 -10 9 -21 15 -23 13 -10 -10 -9 -47 2 -84
16 -53 15 -55 -7 -55 -11 0 -23 -5 -27 -12 -5 -8 2 -9 24 -5 39 8 51 -8 86
-109 13 -38 40 -110 61 -161 20 -51 35 -98 33 -105 -3 -7 1 -19 9 -26 7 -7 13
-32 13 -55 0 -46 15 -79 28 -62 4 6 17 15 29 20 45 20 303 268 303 291 0 7 6
17 13 21 8 4 22 22 33 38 10 17 24 36 31 43 7 7 13 17 13 21 0 4 8 16 19 27
10 11 27 38 37 60 10 21 20 41 23 44 4 3 14 21 23 40 53 110 69 149 75 182 3
21 9 38 14 38 5 0 9 8 9 18 0 9 7 35 15 57 8 22 14 54 15 72 0 17 6 33 13 35
16 6 18 563 1 599 -6 13 -19 58 -29 99 -10 41 -21 80 -25 85 -4 6 -11 24 -15
42 -3 18 -17 55 -31 83 -13 27 -24 55 -24 60 0 6 -11 28 -25 50 -14 22 -25 44
-25 50 0 5 -4 10 -9 10 -5 0 -12 11 -15 25 -4 14 -11 25 -16 25 -6 0 -10 5
-10 10 0 9 -34 59 -93 135 -40 53 -130 147 -181 190 -26 22 -58 49 -69 60 -12
12 -30 24 -40 28 -9 3 -17 11 -17 17 0 5 -4 10 -9 10 -5 0 -36 18 -69 40 -33
22 -65 40 -71 40 -6 0 -11 4 -11 9 0 5 -13 12 -30 16 -16 4 -30 11 -30 16 0 5
-8 9 -18 9 -10 0 -27 7 -38 15 -10 8 -27 15 -36 15 -10 0 -18 4 -18 9 0 5 -18
12 -40 16 -22 4 -40 11 -40 16 0 5 -13 9 -29 9 -17 0 -32 4 -36 9 -3 5 -31 13
-63 17 -31 4 -60 12 -64 18 -7 11 -476 19 -580 9z m-134 -657 c7 -57 4 -53 63
-86 78 -43 82 -81 8 -79 -16 0 -37 -1 -45 -2 -8 -1 -30 -1 -49 -1 -30 2 -33 4
-28 28 3 16 0 28 -9 31 -25 9 -15 24 14 21 22 -2 26 1 24 17 -4 21 8 129 13
123 2 -2 6 -25 9 -52z m769 -1474 c-12 -29 -75 -115 -117 -158 -23 -23 -52
-54 -66 -68 -13 -14 -40 -29 -58 -32 -24 -5 -40 -17 -57 -44 -24 -37 -109 -90
-123 -75 -10 10 52 60 158 130 50 32 98 71 105 85 7 14 30 41 50 60 20 19 43
50 51 69 15 35 43 63 56 55 4 -3 4 -12 1 -22z m-1337 -250 c14 -8 36 -81 28
-93 -2 -4 4 -14 15 -21 11 -8 21 -27 23 -43 2 -19 11 -34 26 -41 l23 -11 -33
-22 c-22 -13 -27 -21 -16 -21 21 0 40 -33 32 -55 -6 -14 -8 -14 -25 1 -25 23
-36 10 -19 -21 11 -20 11 -28 1 -38 -9 -9 -13 -7 -17 11 -4 12 -13 22 -22 22
-22 0 -122 107 -122 131 0 11 -7 22 -15 25 -21 8 -19 44 3 45 16 1 16 2 0 6
-18 5 -25 23 -9 23 5 0 14 12 19 28 21 58 76 95 108 74z m815 -286 c62 -4 77
-16 49 -41 -14 -13 -33 -18 -58 -17 -20 2 -61 -6 -89 -17 -52 -19 -54 -19
-125 0 -40 10 -85 21 -100 24 -34 7 -36 20 -6 36 23 13 228 29 261 21 10 -2
41 -5 68 -6z"/>
</g>
</svg>
